<svg id="Capa_1" enable-background="new 0 0 502.208 502.208" height="512" viewBox="0 0 502.208 502.208" width="512" xmlns="http://www.w3.org/2000/svg"><g><g><g><path d="m425.531 266.116v206.092c0 11.046-8.954 20-20 20h-235.871c-5.304 0-10.391-2.107-14.142-5.858l-72.983-72.983c-3.751-3.751-5.858-8.838-5.858-14.142v-234.43h348.854v20.525" fill="#dfedff"/></g><g><path d="m162.669 490.486v-64.698c0-11.046-8.954-20-20-20h-64.698" fill="#a0c8ff"/></g><path d="m425.531 164.795v-134.795c0-11.046-8.954-20-20-20h-308.854c-11.046 0-20 8.954-20 20v134.795z" fill="#faf7f5"/></g><g><path d="m433.258 220.514c-2.381-3.537-6.872-5.221-10.984-4.075-4.197 1.169-7.216 5.017-7.329 9.381-.232 8.948 11.066 13.597 17.215 7.156 3.191-3.344 3.668-8.605 1.098-12.462z"/><path d="m435.531 30c0-16.542-13.458-30-30-30h-308.854c-16.542 0-30 13.458-30 30v369.225c0 8.013 3.121 15.547 8.787 21.213l72.983 72.983c5.667 5.666 13.2 8.787 21.213 8.787h235.871c16.542 0 30-13.458 30-30v-206.092c0-12.84-20-12.859-20 0v206.092c0 5.514-4.486 10-10 10h-232.862v-56.421c0-16.542-13.458-30-30-30h-55.992v-220.992h328.854v10.525c0 12.84 20 12.859 20 0zm-282.862 395.787v43.572l-53.572-53.572h43.572c5.515 0 10 4.486 10 10zm-65.992-270.992v-124.795c0-5.514 4.486-10 10-10h308.854c5.514 0 10 4.486 10 10v124.795z"/><path d="m193.368 48.066c-5.837-4.965-13.634-7.448-23.388-7.448h-23.128c-3.537 0-8.885 1.722-8.885 6.141v83.231c0 4.42 5.347 6.141 8.885 6.141h23.128c9.754 0 17.551-2.482 23.388-7.448 5.835-4.965 8.755-12.76 8.755-23.388v-33.84c0-10.627-2.92-18.424-8.755-23.389zm-11.629 57.23c0 8.711-3.92 13.066-11.759 13.066h-11.629v-59.973h11.629c7.839 0 11.759 4.356 11.759 13.066z"/><path d="m275.945 48.066c-12.108-10.3-34.545-10.297-46.646 0-5.837 4.965-8.755 12.762-8.755 23.388v34.625c0 10.629 2.918 18.423 8.755 23.389 12.106 10.301 34.542 10.295 46.646 0 5.835-4.965 8.755-12.76 8.755-23.389v-34.624c0-10.627-2.92-18.424-8.755-23.389zm-11.629 58.014c0 17.128-23.388 17.189-23.388 0v-34.625c0-17.165 23.388-17.148 23.388 0z"/><path d="m335.395 58.389c7.491 0 11.368 3.919 11.629 11.759.662 10.367 20.384 7.794 20.384-3.528 0-8.101-3.071-14.458-9.212-19.077-12.531-9.419-34.148-9.856-46.254.523-5.794 4.965-8.689 12.762-8.689 23.388v34.625c0 10.629 2.896 18.423 8.689 23.389 12.181 10.442 33.875 9.967 46.254.13 6.141-4.877 9.212-11.541 9.212-19.991 0-3.744-.784-6.292-2.353-7.644-4.461-3.841-17.404-3.271-18.031 4.116-1.613 16.886-23.388 17.283-23.388 0v-34.624c0-8.71 3.92-13.066 11.759-13.066z"/><path d="m158.151 249.171h56.571c12.84 0 12.859-20 0-20h-56.571c-12.84 0-12.858 20 0 20z"/><path d="m343.73 395.976h-56.571c-12.84 0-12.859 20 0 20h56.571c12.84 0 12.859-20 0-20z"/><path d="m344.504 270.873h-186.353c-12.84 0-12.859 20 0 20h186.353c12.841 0 12.859-20 0-20z"/><path d="m344.504 312.574h-186.353c-12.84 0-12.859 20 0 20h186.353c12.841 0 12.859-20 0-20z"/><path d="m344.504 354.275h-186.353c-12.84 0-12.859 20 0 20h186.353c12.841 0 12.859-20 0-20z"/></g></g></svg>