<?xml version="1.0" encoding="utf-8"?>
<!-- Generator: Adobe Illustrator 21.0.2, SVG Export Plug-In . SVG Version: 6.00 Build 0)  -->
<svg version="1.1" id="Layer_1" xmlns="http://www.w3.org/2000/svg" xmlns:xlink="http://www.w3.org/1999/xlink" x="0px" y="0px"
	 viewBox="0 0 579.1 602.7" style="enable-background:new 0 0 579.1 602.7;" xml:space="preserve">
<style type="text/css">
	.st0{fill:#FFFFFF;}
</style>
<path class="st0" d="M505.4,176.4L443.8,220L383,177.2L331.5,213V53.2L259.8,2.5l-71,50.7V213L75,133.5L4,183.4l0,191L321.4,599
	l71-50.7l0-87.3l51.5-36.6l61.6,43.7l71.7-49.9v-191L505.4,176.4z M259.8,15.7l53.4,37.4l-53.4,37.4l-53.4-37.4L259.8,15.7z
	 M259.8,103.1l52.6,36.7l-52.6,38.2l-53.4-37.4L259.8,103.1z M259.8,189.6l52.6,37.4l-52.6,37.4l-53.4-37.4L259.8,189.6z
	 M22.4,183.4L75,145.9l53.4,37.4L75,220.8L22.4,183.4z M84,227l53.4-37.4l52.6,37.5l-53.4,37.4L84,227z M144.8,270.7l53.4-37.4
	l53.4,37.4l-53.4,37.4L144.8,270.7z M206.4,314.4l53.4-37.4l52.6,36.7L259.8,351L206.4,314.4z M321.4,394.7L268,357.2l53.4-37.4
	l0.4,0.3l52.2,37.2L321.4,394.7z M382.2,264.5L329.6,227l53.4-37.4l52.6,37.4L382.2,264.5z M505.4,264.5l-52.6-37.4l52.6-37.4
	l53.4,37.4L505.4,264.5z"/>
</svg>
